<?xml version="1.0" encoding="UTF-8" standalone="no"?>
<!-- Created with Inkscape (http://www.inkscape.org/) -->

<svg
   xmlns:dc="http://purl.org/dc/elements/1.1/"
   xmlns:cc="http://creativecommons.org/ns#"
   xmlns:rdf="http://www.w3.org/1999/02/22-rdf-syntax-ns#"
   xmlns:svg="http://www.w3.org/2000/svg"
   xmlns="http://www.w3.org/2000/svg"
   xmlns:sodipodi="http://sodipodi.sourceforge.net/DTD/sodipodi-0.dtd"
   xmlns:inkscape="http://www.inkscape.org/namespaces/inkscape"
   width="48"
   height="48"
   viewBox="0 0 12.7 12.7"
   version="1.1"
   id="svg8"
   inkscape:version="0.92.2 5c3e80d, 2017-08-06"
   sodipodi:docname="drawing.svg">
  <defs
     id="defs2">
    <linearGradient
       id="a-3"
       gradientTransform="matrix(0.36451391,0,0,0.3865627,-127.94245,85.064634)"
       gradientUnits="userSpaceOnUse"
       x1="368.96432"
       x2="368.96432"
       y1="545.75293"
       y2="517.39703">
      <stop
         offset="0"
         stop-color="#c61423"
         id="stop2-6" />
      <stop
         offset="1"
         stop-color="#ff4c63"
         id="stop4-7" />
    </linearGradient>
  </defs>
  <sodipodi:namedview
     id="base"
     pagecolor="#ffffff"
     bordercolor="#666666"
     borderopacity="1.0"
     inkscape:pageopacity="0.0"
     inkscape:pageshadow="2"
     inkscape:zoom="1.7751327"
     inkscape:cx="163.60534"
     inkscape:cy="122.39967"
     inkscape:document-units="mm"
     inkscape:current-layer="layer1"
     showgrid="false"
     units="px"
     inkscape:window-width="1366"
     inkscape:window-height="701"
     inkscape:window-x="0"
     inkscape:window-y="0"
     inkscape:window-maximized="1" />
  <metadata
     id="metadata5">
    <rdf:RDF>
      <cc:Work
         rdf:about="">
        <dc:format>image/svg+xml</dc:format>
        <dc:type
           rdf:resource="http://purl.org/dc/dcmitype/StillImage" />
        <dc:title />
      </cc:Work>
    </rdf:RDF>
  </metadata>
  <g
     inkscape:label="Layer 1"
     inkscape:groupmode="layer"
     id="layer1"
     transform="translate(0,-284.29998)">
    <g
       id="layer1-5"
       transform="translate(-0.02634873,-0.21077913)">
      <rect
         id="rect7-5"
         y="285.22601"
         x="0.52916682"
         width="11.641666"
         ry="0.74759543"
         height="10.847916"
         style="opacity:0.98799995;fill:url(#a-3);stroke-width:0.37379771"
         rx="0.74759543" />
      <path
         style="fill:#34495e;fill-opacity:1;stroke:none;stroke-width:0.13030219"
         d="m 2.3104534,286.75512 c -0.079922,0 -0.1441772,0.0648 -0.1441772,0.14469 v 7.35614 0.14418 c 0,0.0799 0.064256,0.14469 0.1441772,0.14469 h 0.144694 7.9343986 c 0.07992,0 0.144177,-0.0648 0.144177,-0.14469 v -7.50032 c 0,-0.0799 -0.06425,-0.14469 -0.144177,-0.14469 H 2.4551474 Z m 4.0395467,2.7404 a 1.452966,1.452966 0 0 1 1.4531414,1.45314 1.452966,1.452966 0 0 1 -1.4531414,1.45314 1.452966,1.452966 0 0 1 -1.4531414,-1.45314 1.452966,1.452966 0 0 1 1.4531414,-1.45314 z"
         id="path868"
         inkscape:connector-curvature="0" />
      <path
         style="fill:#ffffff;stroke-width:0.46709761"
         d="m 2.730066,287.63465 c -0.1533248,0 -0.2769856,0.13984 -0.2769856,0.31264 v 6.00325 c 0,0.1728 0.1236608,0.31213 0.2769856,0.31213 h 7.2398683 c 0.1533237,0 0.2769857,-0.13933 0.2769857,-0.31213 v -6.00325 c 0,-0.1728 -0.123662,-0.31264 -0.2769857,-0.31264 z m 3.6199341,1.86087 a 1.452966,1.452966 0 0 1 1.4531414,1.45314 1.452966,1.452966 0 0 1 -1.4531414,1.45314 1.452966,1.452966 0 0 1 -1.4531414,-1.45314 1.452966,1.452966 0 0 1 1.4531414,-1.45314 z"
         id="path859"
         inkscape:connector-curvature="0" />
      <g
         transform="matrix(0.24285684,0,0,0.24285684,2.5637073,285.45123)"
         id="g916"
         style="fill:#c81626;fill-opacity:0.98823529;stroke-width:1.08946216">
        <g
           style="fill:#c81626;fill-opacity:0.98823529;stroke-width:1.63039148"
           id="g17"
           transform="matrix(0.6134646,0,0,0.6134646,-178.01914,-297.8473)">
          <path
             style="opacity:0.75;fill:#c81626;fill-opacity:0.98823529;stroke-width:1.63039148"
             id="path9"
             d="m 294.90044,506.26511 v 1 4 h 1 v -4 h 4 v -1 z"
             inkscape:connector-curvature="0" />
          <path
             style="opacity:0.75;fill:#c81626;fill-opacity:0.98823529;stroke-width:1.63039148"
             id="path11"
             d="m 294.90044,538.56511 h 1 4 v -1 h -4 v -4 h -1 z"
             inkscape:connector-curvature="0" />
          <path
             style="opacity:0.75;fill:#c81626;fill-opacity:0.98823529;stroke-width:1.63039148"
             id="path13"
             d="m 336.2007,538.06511 v -1 -4 h -1 v 4 h -4 v 1 z"
             inkscape:connector-curvature="0" />
          <path
             style="opacity:0.75;fill:#c81626;fill-opacity:0.98823529;stroke-width:1.63039148"
             id="path15"
             d="m 336.3007,506.56472 h -1 -4 v 1 h 4 v 4 h 1 z"
             inkscape:connector-curvature="0" />
        </g>
      </g>
    </g>
    <g
       id="g877"
       transform="matrix(0.26458333,0,0,0.26458333,1.2250387,254.2726)"
       style="fill:#666666">
      <rect
         id="rect848"
         y="517.73608"
         x="384.6958"
         width="33.975594"
         transform="matrix(1.4127788,0,0,1.4127788,-543.55407,-727.20666)"
         ry="2"
         height="28.0625"
         style="opacity:0.98799995;fill:#666666"
         rx="2" />
      <g
         id="g860"
         style="fill:#666666">
        <path
           id="path850"
           transform="matrix(1.0015158,0,0,1.0015158,-292.21971,-499.30088)"
           d="m 294.90044,506.26511 v 1 4 h 1 v -4 h 4 v -1 z"
           inkscape:connector-curvature="0"
           style="opacity:0.75;fill:#666666" />
        <path
           id="path852"
           transform="matrix(1.0015158,0,0,1.0015158,-292.21971,-499.30088)"
           d="m 294.90044,538.56511 h 1 4 v -1 h -4 v -4 h -1 z"
           inkscape:connector-curvature="0"
           style="opacity:0.75;fill:#666666" />
        <path
           id="path854"
           transform="matrix(1.0015158,0,0,1.0015158,-292.21971,-499.30088)"
           d="m 336.2007,538.06511 v -1 -4 h -1 v 4 h -4 v 1 z"
           inkscape:connector-curvature="0"
           style="opacity:0.75;fill:#666666" />
        <path
           id="path856"
           transform="matrix(1.0015158,0,0,1.0015158,-292.21971,-499.30088)"
           d="m 336.3007,506.56472 h -1 -4 v 1 h 4 v 4 h 1 z"
           inkscape:connector-curvature="0"
           style="opacity:0.75;fill:#666666" />
        <path
           id="path858"
           transform="matrix(0.14774669,0,0,0.14774669,14.215025,14.462085)"
           d="M 132.77,118.025 104.825,90.08 c 6.735,-9.722 10.104,-20.559 10.104,-32.508 0,-7.767 -1.508,-15.195 -4.523,-22.283 C 107.392,28.2 103.318,22.09 98.185,16.957 93.052,11.824 86.943,7.75 79.855,4.736 72.765,1.721 65.337,0.214 57.57,0.214 49.803,0.214 42.375,1.721 35.287,4.736 28.198,7.75 22.088,11.824 16.955,16.957 11.822,22.09 7.748,28.201 4.734,35.289 1.719,42.378 0.212,49.805 0.212,57.572 c 0,7.767 1.507,15.193 4.522,22.283 3.014,7.088 7.088,13.197 12.221,18.33 5.133,5.134 11.244,9.207 18.332,12.222 7.089,3.015 14.516,4.522 22.283,4.522 11.951,0 22.787,-3.369 32.509,-10.104 l 27.945,27.863 c 1.955,2.064 4.397,3.096 7.332,3.096 2.824,0 5.27,-1.032 7.332,-3.096 2.064,-2.063 3.096,-4.508 3.096,-7.332 0.001,-2.877 -1.003,-5.322 -3.014,-7.331 z M 83.357,83.357 C 76.214,90.5 67.619,94.071 57.57,94.071 47.522,94.071 38.927,90.499 31.784,83.357 24.641,76.214 21.07,67.62 21.07,57.571 c 0,-10.048 3.572,-18.644 10.714,-25.786 7.142,-7.143 15.738,-10.714 25.786,-10.714 10.048,0 18.643,3.572 25.787,10.714 7.143,7.142 10.715,15.738 10.715,25.786 0,10.049 -3.573,18.643 -10.715,25.786 z"
           inkscape:connector-curvature="0"
           style="opacity:0.72100004;fill:#666666" />
      </g>
    </g>
  </g>
</svg>
