<?xml version="1.0" encoding="iso-8859-1"?>
<!-- Generator: Adobe Illustrator 19.0.0, SVG Export Plug-In . SVG Version: 6.00 Build 0)  -->
<svg version="1.1" id="Capa_1" xmlns="http://www.w3.org/2000/svg" xmlns:xlink="http://www.w3.org/1999/xlink" x="0px" y="0px"
	 viewBox="0 0 512 512" style="enable-background:new 0 0 512 512;" xml:space="preserve">
<path style="fill:#FFD664;" d="M256,512c-21.501,0-42.859-2.67-63.481-7.936c-9.625-2.458-14.24-13.44-9.279-22.033l116.101-201.1
	c19.127-33.13-4.894-74.951-43.3-74.951c-8.284,0-15-6.716-15-15s6.716-15,15-15h232.08c6.727,0,12.631,4.478,14.444,10.956
	C508.826,209.297,512,232.534,512,256C512,397.491,397.503,512,256,512z"/>
<path style="fill:#FF9842;" d="M502.564,186.936c-1.813-6.478-7.718-10.956-14.444-10.956H256.04c-0.013,0-0.027,0.002-0.04,0.002
	v29.996c0.013,0,0.027,0.002,0.04,0.002c38.406,0,62.427,41.821,43.3,74.951L256,356v156c141.503,0,256-114.509,256-256
	C512,232.534,508.826,209.297,502.564,186.936z"/>
<path style="fill:#B6F068;" d="M192.521,504.064C83.954,476.357,0,377.64,0,256c0-44.006,11.357-87.412,32.843-125.526
	c4.874-8.644,16.663-10.251,23.674-3.24l163.93,163.94c0.029,0.029,0.058,0.058,0.087,0.086
	c22.962,23.035,61.748,18.463,78.472-9.758c4.207-7.098,13.357-9.465,20.478-5.3c7.122,4.166,9.542,13.302,5.417,20.447
	l-115.68,200.38C205.862,502.848,199.042,505.728,192.521,504.064z"/>
<path style="fill:#6DE661;" d="M319.484,276.202c-7.121-4.165-16.271-1.798-20.478,5.3c-9.518,16.061-26.181,24.449-43.006,24.462
	v110.035l68.901-119.35C329.026,289.504,326.605,280.368,319.484,276.202z"/>
<path style="fill:#FF6D4A;" d="M199.233,312.387l-163.93-163.94c-4.759-4.76-5.766-12.107-2.461-17.971C76.87,52.35,160.555,0,256,0
	c118.286,0,216.656,79.909,246.566,186.943c2.672,9.563-4.532,19.037-14.446,19.037H256c-44.11,0-66.872,53.674-35.519,85.228
	c5.832,5.87,5.809,15.354-0.052,21.196C214.569,318.245,205.085,318.238,199.233,312.387z"/>
<path style="fill:#FE4234;" d="M502.566,186.943C472.656,79.909,374.286,0,256,0v205.98h232.12
	C498.034,205.98,505.239,196.505,502.566,186.943z"/>
<circle style="fill:#51CAF3;" cx="256" cy="256" r="80"/>
<path style="fill:#3FA0E1;" d="M256,176v160c44.183,0,80-35.817,80-80S300.183,176,256,176z"/>
<g>
</g>
<g>
</g>
<g>
</g>
<g>
</g>
<g>
</g>
<g>
</g>
<g>
</g>
<g>
</g>
<g>
</g>
<g>
</g>
<g>
</g>
<g>
</g>
<g>
</g>
<g>
</g>
<g>
</g>
</svg>
