<?xml version="1.0" encoding="UTF-8" standalone="no"?>
<svg
   xmlns:dc="http://purl.org/dc/elements/1.1/"
   xmlns:cc="http://creativecommons.org/ns#"
   xmlns:rdf="http://www.w3.org/1999/02/22-rdf-syntax-ns#"
   xmlns:svg="http://www.w3.org/2000/svg"
   xmlns="http://www.w3.org/2000/svg"
   xmlns:xlink="http://www.w3.org/1999/xlink"
   height="64"
   width="64"
   version="1.1"
   id="svg34">
  <metadata
     id="metadata40">
    <rdf:RDF>
      <cc:Work
         rdf:about="">
        <dc:format>image/svg+xml</dc:format>
        <dc:type
           rdf:resource="http://purl.org/dc/dcmitype/StillImage" />
        <dc:title></dc:title>
      </cc:Work>
    </rdf:RDF>
  </metadata>
  <defs
     id="defs38">
    <linearGradient
       xlink:href="#linearGradient902"
       id="linearGradient904"
       x1="-0.14685822"
       y1="16.000034"
       x2="32.146942"
       y2="16.000034"
       gradientUnits="userSpaceOnUse"
       gradientTransform="matrix(1.6721475,0,0,1.6721475,-58.75443,5.2455868)" />
    <linearGradient
       id="linearGradient902">
      <stop
         style="stop-color:#5c5c5c;stop-opacity:1"
         offset="0"
         id="stop898" />
      <stop
         style="stop-color:#aeaeae;stop-opacity:1"
         offset="1"
         id="stop900" />
    </linearGradient>
    <linearGradient
       id="d-3"
       gradientUnits="userSpaceOnUse"
       x1="367.63321"
       x2="367.63321"
       xlink:href="#a-6"
       y1="546.94806"
       y2="517.33881"
       gradientTransform="matrix(1.424422,0,0,1.424422,-471.59976,-729.57261)" />
    <linearGradient
       id="a-6">
      <stop
         offset="0"
         stop-color="#d3d3d3"
         id="stop2-7" />
      <stop
         offset="1"
         stop-color="#fcf9f9"
         id="stop4-5" />
    </linearGradient>
    <linearGradient
       id="g"
       gradientUnits="userSpaceOnUse"
       x1="331.76804"
       x2="331.76804"
       y1="562.19806"
       y2="531.61774"
       gradientTransform="matrix(1.424422,0,0,1.424422,-471.59976,-729.57261)">
      <stop
         offset="0"
         stop-color="#8d3aff"
         id="stop16" />
      <stop
         offset="1"
         stop-color="#ff3680"
         id="stop18" />
    </linearGradient>
    <linearGradient
       xlink:href="#linearGradient1331"
       id="linearGradient890"
       x1="16.248608"
       y1="30.113657"
       x2="16.248608"
       y2="2.3934879"
       gradientUnits="userSpaceOnUse"
       gradientTransform="matrix(1.8897478,0,0,1.8897478,4.0250437,-59.974945)" />
    <linearGradient
       id="linearGradient1331">
      <stop
         style="stop-color:#00ff72;stop-opacity:1"
         offset="0"
         id="stop1327" />
      <stop
         style="stop-color:#00ffcc;stop-opacity:1"
         offset="1"
         id="stop1329" />
    </linearGradient>
    <linearGradient
       xlink:href="#linearGradient1331"
       id="linearGradient890-3"
       x1="16.248608"
       y1="30.113657"
       x2="16.248608"
       y2="2.3934879"
       gradientUnits="userSpaceOnUse"
       gradientTransform="matrix(1.8897478,0,0,1.8897478,1.7639582,-62.236031)" />
  </defs>
  <linearGradient
     id="a">
    <stop
       offset="0"
       stop-color="#1365f4"
       id="stop2" />
    <stop
       offset="1"
       stop-color="#05b2fc"
       id="stop4" />
  </linearGradient>
  <linearGradient
     id="b"
     gradientUnits="userSpaceOnUse"
     x1="399.57144"
     x2="399.57144"
     y1="545.79797"
     y2="517.79797">
    <stop
       offset="0"
       stop-color="#3889e9"
       id="stop7" />
    <stop
       offset="1"
       stop-color="#5ea5fb"
       id="stop9" />
  </linearGradient>
  <linearGradient
     id="c"
     gradientUnits="userSpaceOnUse"
     x1="400.5119"
     x2="400.69922"
     xlink:href="#a"
     y1="546.07446"
     y2="517.77289" />
  <linearGradient
     gradientUnits="userSpaceOnUse"
     x1="41.16489"
     x2="54.039001"
     y1="89.36377"
     y2="20.836"
     id="linearGradient17">
    <stop
       offset="0"
       stop-color="#e3e3e3"
       id="stop13" />
    <stop
       offset="1"
       stop-color="#fffcff"
       id="stop15" />
  </linearGradient>
  <linearGradient
     id="d"
     gradientUnits="userSpaceOnUse"
     x1="394.81812"
     x2="396.73026"
     xlink:href="#a"
     y1="546.72809"
     y2="518.37012" />
  <circle
     transform="scale(1,-1)"
     cx="32"
     cy="-32"
     r="27"
     id="circle882"
     style="fill:url(#linearGradient890-3);fill-opacity:1;stroke:none;stroke-width:1.05747402" />
  <circle
     cx="52.328667"
     cy="28.693014"
     r="0"
     id="circle27"
     style="fill:url(#d-3);stroke-width:1" />
  <circle
     cx="1.2501712"
     cy="49.732624"
     r="0"
     id="circle29"
     style="fill:none;stroke:url(#g);stroke-width:1.41979885" />
  <circle
     cx="156.12773"
     cy="28.100084"
     r="0"
     id="circle33"
     style="stroke-width:1" />
  <path
     style="fill:#1d1d1d;fill-opacity:1"
     id="path30-3"
     d="m 43.926659,29.75207 c 0.0339,-0.11689 0.0353,-0.24003 0.0353,-0.36775 v -1.36738 c 0,-3.23523 -1.22155,-6.25946 -3.47184,-8.51529 -2.25232,-2.25804 -5.265016,-3.50166 -8.499121,-3.50166 -3.23418,0 -6.2336,1.24362 -8.486,3.50166 -2.25021,2.25583 -3.46736,5.27997 -3.46736,8.51529 v 1.36738 c 0,0.12781 10e-4,0.25086 0.0353,0.36775 -2.06207,0.16343 -3.70968,2.36218 -3.70968,5.04214 0,2.6921 1.64858,4.89929 3.72366,5.04513 0.55475,0.74754 1.44962,1.20175 2.40246,1.20175 1.65641,0 3.00171,-1.34848 3.00171,-3.00594 v -6.4819 c 0,-1.60592 -1.2314,-2.92176 -2.81463,-3.00207 v -0.53425 c -8e-5,-5.25885 4.0754,-9.37824 9.32345,-9.37824 5.247961,0 9.323361,4.11939 9.323361,9.37824 v 0.53425 c -1.58323,0.0806 -2.81463,1.39632 -2.81463,3.00207 v 6.4819 c 0,1.08407 0.57665,2.03568 1.43898,2.56457 -0.98266,1.44566 -2.36385,2.58946 -3.998616,3.28739 -0.44735,-0.49845 -1.09603,-0.81272 -1.81692,-0.81272 h -3.384945 c -1.34627,0 -2.44151,1.09524 -2.44151,2.44151 v 0.0426 c 0,1.34627 1.09524,2.44151 2.44151,2.44151 h 3.384945 c 0.99048,0 1.84445,-0.59318 2.22698,-1.44267 1.616386,-0.58782 3.093006,-1.51999 4.336016,-2.75992 0.92583,-0.92346 1.68077,-1.97639 2.24968,-3.1201 0.37927,-0.20476 0.71359,-0.48886 0.97271,-0.83796 2.075,-0.14619 3.71927,-2.3532 3.71927,-5.04512 0,-2.68015 -1.64762,-4.8789 -3.71003,-5.04214 z" />
</svg>
