<?xml version="1.0" encoding="UTF-8" standalone="no"?>
<svg
   xmlns:dc="http://purl.org/dc/elements/1.1/"
   xmlns:cc="http://creativecommons.org/ns#"
   xmlns:rdf="http://www.w3.org/1999/02/22-rdf-syntax-ns#"
   xmlns:svg="http://www.w3.org/2000/svg"
   xmlns="http://www.w3.org/2000/svg"
   width="64px"
   height="64px"
   viewBox="0 0 64 64"
   version="1.1"
   id="svg35">
  <metadata
     id="metadata39">
    <rdf:RDF>
      <cc:Work
         rdf:about="">
        <dc:format>image/svg+xml</dc:format>
        <dc:type
           rdf:resource="http://purl.org/dc/dcmitype/StillImage" />
        <dc:title>drive-removable-media-usb-64px</dc:title>
      </cc:Work>
    </rdf:RDF>
  </metadata>
  <!-- Generator: Sketch 39.1 (31720) - http://www.bohemiancoding.com/sketch -->
  <title
     id="title2">drive-removable-media-usb-64px</title>
  <desc
     id="desc4">Created with Sketch.</desc>
  <defs
     id="defs11">
    <linearGradient
       x1="50%"
       y1="1.4588648%"
       x2="50%"
       y2="97.9233099%"
       id="linearGradient-1">
      <stop
         stop-color="#CE85FE"
         offset="0%"
         id="stop6" />
      <stop
         stop-color="#A170FC"
         offset="100%"
         id="stop8" />
    </linearGradient>
  </defs>
  <g
     transform="matrix(1.3333334,0,0,1.3333334,-157.89566,51.414989)"
     id="layer2"
     style="display:inline" />
  <g
     transform="matrix(1.3333334,0,0,1.3333334,-157.89566,51.414989)"
     id="layer1"
     style="display:inline" />
  <g
     transform="matrix(1.3333334,0,0,1.3333334,80.792675,-3.3880031)"
     id="layer2-6"
     style="display:inline" />
  <g
     transform="matrix(1.3333334,0,0,1.3333334,80.792675,-3.3880031)"
     id="layer1-5"
     style="display:inline" />
  <path
     id="rect4254"
     d="M 23.999983,49.333333 V 58.666667 61.333334 64 h 16.000001 v -2.666666 -2.666667 -9.333334 z"
     style="opacity:1;fill:#999999;fill-opacity:1;stroke:none;stroke-width:3.73333335;stroke-miterlimit:4;stroke-dasharray:none;stroke-opacity:0.55026455" />
  <rect
     y="5.3333359"
     x="-2.722505e-07"
     height="47.999996"
     width="64"
     id="rect4173"
     style="opacity:1;fill:#4d4d4d;fill-opacity:1;stroke:none;stroke-width:3.73333335;stroke-miterlimit:4;stroke-dasharray:none;stroke-opacity:0.55026455" />
  <rect
     y="62.66663"
     x="17.333332"
     height="1.3332983"
     width="29.333336"
     id="rect4295"
     style="opacity:1;fill:#797474;fill-opacity:1;stroke:none;stroke-width:3.73333335;stroke-miterlimit:4;stroke-dasharray:none;stroke-opacity:0.55026455" />
  <path
     d="M 33.333317,50.666666 A 1.3333334,1.3333334 0 0 1 31.999984,52 1.3333334,1.3333334 0 0 1 30.66665,50.666666 a 1.3333334,1.3333334 0 0 1 1.333334,-1.333333 1.3333334,1.3333334 0 0 1 1.333333,1.333333 z"
     id="path3072"
     style="opacity:0.75;fill:#dfdfdf;fill-opacity:1;fill-rule:evenodd;stroke:none;stroke-width:1.33333337" />
  <g
     id="g970"
     transform="matrix(1.226676,0,0,1.0863701,-56.999963,-4.6063432)">
    <path
       style="fill:#c9f3fe;fill-opacity:0.98823529;stroke:none;stroke-width:0.1;stroke-linecap:round;stroke-linejoin:round;stroke-miterlimit:4;stroke-dasharray:none"
       d="m 59.203125,11.84375 6.609375,11.884766 8.339844,-5.1875 5.185547,-6.697266 h -10.06836 z"
       id="path837" />
    <path
       style="fill:#7bea45;fill-opacity:1;stroke:none;stroke-width:0.1;stroke-linecap:round;stroke-linejoin:round;stroke-miterlimit:4;stroke-dasharray:none"
       d="m 49.380859,11.84375 v 12.087891 l 6.261719,-4.576172 3.560547,-7.511719 z"
       id="path839" />
    <path
       style="fill:#b4ebf7;fill-opacity:1;stroke:none;stroke-width:0.1;stroke-linecap:round;stroke-linejoin:round;stroke-miterlimit:4;stroke-dasharray:none"
       d="m 79.337891,11.84375 -5.185547,6.697266 -8.339844,5.1875 6.101562,8.644531 L 83,22 Z"
       id="path841" />
    <path
       style="fill:#afefff;fill-opacity:1;stroke:none;stroke-width:0.1;stroke-linecap:round;stroke-linejoin:round;stroke-miterlimit:4;stroke-dasharray:none"
       d="m 59.203125,11.84375 -3.560547,7.511719 2.441406,8.134766 13.830078,4.882812 -6.101562,-8.644531 z"
       id="path843" />
    <path
       style="fill:#85d92e;fill-opacity:1;stroke:none;stroke-width:0.1;stroke-linecap:round;stroke-linejoin:round;stroke-miterlimit:4;stroke-dasharray:none"
       d="m 55.642578,19.355469 -6.261719,4.576172 v 8.441406 l 8.703125,-4.882812 z"
       id="path845" />
    <path
       style="fill:#858ae6;fill-opacity:1;stroke:none;stroke-width:0.1;stroke-linecap:round;stroke-linejoin:round;stroke-miterlimit:4;stroke-dasharray:none"
       d="M 95.957031,11.84375 83,22 l 2.642578,9.863282 10.314453,-8.949219 z"
       id="path847" />
    <path
       style="fill:#42daf4;fill-opacity:1;stroke:none;stroke-width:0.1;stroke-linecap:round;stroke-linejoin:round;stroke-miterlimit:4;stroke-dasharray:none"
       d="m 95.957031,22.914063 -10.314453,8.949219 10.314453,6.101562 v -8.642578 z"
       id="path849" />
    <path
       style="fill:#b6ec44;fill-opacity:1;stroke:none;stroke-width:0.1;stroke-linecap:round;stroke-linejoin:round;stroke-miterlimit:4;stroke-dasharray:none"
       d="m 58.083984,27.490235 -8.703125,4.882812 v 7.423828 8.517578 l 7.685547,-12.28125 z"
       id="path851" />
    <path
       style="fill:#6fc8d1;fill-opacity:1;stroke:none;stroke-width:0.1;stroke-linecap:round;stroke-linejoin:round;stroke-miterlimit:4;stroke-dasharray:none"
       d="m 58.083984,27.490235 -1.017578,8.542968 9.763672,4.47461 5.083984,-8.134766 z"
       id="path853" />
    <path
       style="fill:#76e4ff;fill-opacity:1;stroke:none;stroke-width:0.1;stroke-linecap:round;stroke-linejoin:round;stroke-miterlimit:4;stroke-dasharray:none"
       d="m 83,22 -11.085938,10.373047 6,8.439453 7.728516,-8.949218 z"
       id="path855" />
    <path
       style="fill:#0ca6ed;fill-opacity:1;stroke:none;stroke-width:0.1;stroke-linecap:round;stroke-linejoin:round;stroke-miterlimit:4;stroke-dasharray:none"
       d="m 85.642578,31.863282 -7.728516,8.949218 4.47461,7.501953 5.564256,-5.409112 8.004103,-4.940497 z"
       id="path857" />
    <path
       style="fill:#35c5db;fill-opacity:1;stroke:none;stroke-width:0.1;stroke-linecap:round;stroke-linejoin:round;stroke-miterlimit:4;stroke-dasharray:none"
       d="m 71.914062,32.373047 -5.083984,8.134766 -0.916016,7.80664 12,-7.501953 z"
       id="path859" />
    <path
       style="fill:#41b1e8;fill-opacity:1;stroke:none;stroke-width:0.1;stroke-linecap:round;stroke-linejoin:round;stroke-miterlimit:4;stroke-dasharray:none"
       d="m 95.957031,37.964844 -9.460532,3.167453 -4.107827,7.182156 h 13.568359 z"
       id="path861" />
    <path
       style="fill:#9cf79a;fill-opacity:1;stroke:none;stroke-width:0.1;stroke-linecap:round;stroke-linejoin:round;stroke-miterlimit:4;stroke-dasharray:none"
       d="m 57.066406,36.033203 -7.685547,12.28125 h 16.533203 l 0.916016,-7.80664 z"
       id="path863" />
    <path
       style="fill:#0b8d97;fill-opacity:1;stroke:none;stroke-width:0.1;stroke-linecap:butt;stroke-linejoin:miter;stroke-miterlimit:4;stroke-dasharray:none;stroke-opacity:1"
       d="M 65.914475,48.313981 H 82.38905 l -4.474575,-7.500946 z"
       id="path865" />
    <path
       style="fill:#9ab7ef;fill-opacity:1;stroke:none;stroke-width:0.1;stroke-linecap:butt;stroke-linejoin:miter;stroke-miterlimit:4;stroke-dasharray:none;stroke-opacity:1"
       d="M 76.024771,11.84364 H 95.956429 L 82.999222,21.999475 Z"
       id="path867" />
  </g>
  <g
     transform="matrix(1.226676,0,0,1.0863701,-56.999963,-4.6063432)"
     id="g880">
    <path
       id="path848"
       d="m 59.203125,11.84375 6.609375,11.884766 8.339844,-5.1875 5.185547,-6.697266 h -10.06836 z"
       style="fill:#c9f3fe;fill-opacity:0.98823529;stroke:none;stroke-width:0.1;stroke-linecap:round;stroke-linejoin:round;stroke-miterlimit:4;stroke-dasharray:none" />
    <path
       id="path850"
       d="m 49.380859,11.84375 v 12.087891 l 6.261719,-4.576172 3.560547,-7.511719 z"
       style="fill:#7bea45;fill-opacity:1;stroke:none;stroke-width:0.1;stroke-linecap:round;stroke-linejoin:round;stroke-miterlimit:4;stroke-dasharray:none" />
    <path
       id="path852"
       d="m 79.337891,11.84375 -5.185547,6.697266 -8.339844,5.1875 6.101562,8.644531 L 83,22 Z"
       style="fill:#b4ebf7;fill-opacity:1;stroke:none;stroke-width:0.1;stroke-linecap:round;stroke-linejoin:round;stroke-miterlimit:4;stroke-dasharray:none" />
    <path
       id="path854"
       d="m 59.203125,11.84375 -3.560547,7.511719 2.441406,8.134766 13.830078,4.882812 -6.101562,-8.644531 z"
       style="fill:#afefff;fill-opacity:1;stroke:none;stroke-width:0.1;stroke-linecap:round;stroke-linejoin:round;stroke-miterlimit:4;stroke-dasharray:none" />
    <path
       id="path856"
       d="m 55.642578,19.355469 -6.261719,4.576172 v 8.441406 l 8.703125,-4.882812 z"
       style="fill:#85d92e;fill-opacity:1;stroke:none;stroke-width:0.1;stroke-linecap:round;stroke-linejoin:round;stroke-miterlimit:4;stroke-dasharray:none" />
    <path
       id="path858"
       d="M 95.957031,11.84375 83,22 l 2.642578,9.863282 10.314453,-8.949219 z"
       style="fill:#858ae6;fill-opacity:1;stroke:none;stroke-width:0.1;stroke-linecap:round;stroke-linejoin:round;stroke-miterlimit:4;stroke-dasharray:none" />
    <path
       id="path860"
       d="m 95.957031,22.914063 -10.314453,8.949219 10.314453,6.101562 v -8.642578 z"
       style="fill:#42daf4;fill-opacity:1;stroke:none;stroke-width:0.1;stroke-linecap:round;stroke-linejoin:round;stroke-miterlimit:4;stroke-dasharray:none" />
    <path
       id="path862"
       d="m 58.083984,27.490235 -8.703125,4.882812 v 7.423828 8.517578 l 7.685547,-12.28125 z"
       style="fill:#b6ec44;fill-opacity:1;stroke:none;stroke-width:0.1;stroke-linecap:round;stroke-linejoin:round;stroke-miterlimit:4;stroke-dasharray:none" />
    <path
       id="path864"
       d="m 58.083984,27.490235 -1.017578,8.542968 9.763672,4.47461 5.083984,-8.134766 z"
       style="fill:#6fc8d1;fill-opacity:1;stroke:none;stroke-width:0.1;stroke-linecap:round;stroke-linejoin:round;stroke-miterlimit:4;stroke-dasharray:none" />
    <path
       id="path866"
       d="m 83,22 -11.085938,10.373047 6,8.439453 7.728516,-8.949218 z"
       style="fill:#76e4ff;fill-opacity:1;stroke:none;stroke-width:0.1;stroke-linecap:round;stroke-linejoin:round;stroke-miterlimit:4;stroke-dasharray:none" />
    <path
       id="path868"
       d="m 85.642578,31.863282 -7.728516,8.949218 4.47461,7.501953 5.564256,-5.409112 8.004103,-4.940497 z"
       style="fill:#0ca6ed;fill-opacity:1;stroke:none;stroke-width:0.1;stroke-linecap:round;stroke-linejoin:round;stroke-miterlimit:4;stroke-dasharray:none" />
    <path
       id="path870"
       d="m 71.914062,32.373047 -5.083984,8.134766 -0.916016,7.80664 12,-7.501953 z"
       style="fill:#35c5db;fill-opacity:1;stroke:none;stroke-width:0.1;stroke-linecap:round;stroke-linejoin:round;stroke-miterlimit:4;stroke-dasharray:none" />
    <path
       id="path872"
       d="m 95.957031,37.964844 -9.460532,3.167453 -4.107827,7.182156 h 13.568359 z"
       style="fill:#41b1e8;fill-opacity:1;stroke:none;stroke-width:0.1;stroke-linecap:round;stroke-linejoin:round;stroke-miterlimit:4;stroke-dasharray:none" />
    <path
       id="path874"
       d="m 57.066406,36.033203 -7.685547,12.28125 h 16.533203 l 0.916016,-7.80664 z"
       style="fill:#9cf79a;fill-opacity:1;stroke:none;stroke-width:0.1;stroke-linecap:round;stroke-linejoin:round;stroke-miterlimit:4;stroke-dasharray:none" />
    <path
       id="path876"
       d="M 65.914475,48.313981 H 82.38905 l -4.474575,-7.500946 z"
       style="fill:#0b8d97;fill-opacity:1;stroke:none;stroke-width:0.1;stroke-linecap:butt;stroke-linejoin:miter;stroke-miterlimit:4;stroke-dasharray:none;stroke-opacity:1" />
    <path
       id="path878"
       d="M 76.024771,11.84364 H 95.956429 L 82.999222,21.999475 Z"
       style="fill:#9ab7ef;fill-opacity:1;stroke:none;stroke-width:0.1;stroke-linecap:butt;stroke-linejoin:miter;stroke-miterlimit:4;stroke-dasharray:none;stroke-opacity:1" />
  </g>
  <rect
     style="opacity:1;fill:#c5eff7;fill-opacity:1;stroke:none;stroke-width:3.887357;stroke-linecap:round;stroke-linejoin:round;stroke-miterlimit:4;stroke-dasharray:none;stroke-opacity:0.52777782"
     id="rect4604"
     width="57.132912"
     height="3.7030053"
     x="3.5743511"
     y="44.178028" />
  <ellipse
     style="opacity:1;fill:#172f55;fill-opacity:1;stroke:none;stroke-width:1.19337976;stroke-miterlimit:4;stroke-dasharray:none;stroke-opacity:1"
     id="path1017"
     cx="52.543377"
     cy="46.02953"
     rx="0.92499995"
     ry="0.92500001" />
  <ellipse
     style="opacity:1;fill:#172f55;fill-opacity:1;stroke:none;stroke-width:1.19337976;stroke-miterlimit:4;stroke-dasharray:none;stroke-opacity:1"
     id="path1017-7"
     cx="55.213665"
     cy="46.02953"
     rx="0.92499995"
     ry="0.92500001" />
  <ellipse
     style="opacity:1;fill:#172f55;fill-opacity:1;stroke:none;stroke-width:1.19337976;stroke-miterlimit:4;stroke-dasharray:none;stroke-opacity:1"
     id="path1017-7-2"
     cx="57.941986"
     cy="46.02953"
     rx="0.92499995"
     ry="0.92500001" />
  <path
     style="fill:#172f55;fill-opacity:1;stroke-width:0.99999994"
     id="rect4183"
     d="m 5.5618877,45.104531 v 0.925 h 0.925 v -0.925 z m 0.925,0.925 v 0.925 h 0.925 v -0.925 z" />
</svg>
